#!OML:ASF H:\ManfredETheater\Project 1\Capture day 1\Session 1\subject.ASF
:FULLY-SPECIFIED
:DEGREES
76
root 14.8508 14.1407 13.3039 -277.197 -73.4499 -53.9656
lowerback 57.4883 -0.995869 6.69262
upperback 14.4978 -0.270585 2.4799
thorax -4.82664 -1.23544 -0.0331732
lowerneck 4.82054 -7.44655 -12.6576
upperneck -1.77347 -10.292 14.3875
head 0.123794 -5.30564 6.41733
rclavicle 1.59028e-014 -3.53837e-014
rhumerus -24.3556 6.05621 -86.7958
rradius 44.5128
rwrist -1.71449
rhand -25.2752 -5.95473
rfingers 7.12502
rthumb 1.24573 -35.9308
lclavicle 1.59028e-014 -3.53837e-014
lhumerus -16.9972 16.7616 68.9001
lradius 116.789
lwrist 15.3619
lhand -31.0815 2.28825
lfingers 7.12502
lthumb -4.36188 32.2233
rfemur -78.6347 -32.9489 29.0794
rtibia 93.7349
rfoot -7.64953 12.283
rtoes -35.5603
lfemur -91.9694 17.9877 -18.1975
ltibia 93.0236
lfoot -12.8248 -25.2416
ltoes 2.73896
77
root 14.7088 14.0841 12.9278 -277.475 -72.8383 -53.4306
lowerback 57.1041 -0.78679 6.45768
upperback 14.5186 -0.133895 2.71961
thorax -4.79649 -1.19119 0.26316
lowerneck 4.74688 -7.38408 -12.755
upperneck -1.68534 -10.2162 14.3196
head 0.152197 -5.26313 6.40876
rclavicle -3.18055e-014 -1.61016e-014
rhumerus -24.4363 5.44632 -86.0314
rradius 44.8672
rwrist -2.04435
rhand -25.4808 -5.46262
rfingers 7.12502
rthumb 1.04721 -35.4398
lclavicle -3.18055e-014 -1.61016e-014
lhumerus -17.5262 16.19 69.1084
lradius 118.639
lwrist 15.0157
lhand -31.1729 3.16048
lfingers 7.12502
lthumb -4.45014 33.0937
rfemur -76.3802 -32.2192 25.7195
rtibia 91.1216
rfoot -10.3336 9.05688
rtoes -32.5987
lfemur -90.9768 17.8522 -16.353
ltibia 92.6145
lfoot -15.765 -24.8029
ltoes 3.73827
78
root 14.5653 14.0255 12.5515 -277.919 -72.4266 -52.7498
lowerback 56.7886 -0.569056 6.07493
upperback 14.5107 -0.0536069 2.92093
thorax -4.80994 -1.17179 0.608322
lowerneck 4.64853 -7.34232 -12.8198
upperneck -1.65826 -10.1593 14.2934
head 0.170203 -5.2314 6.40768
rclavicle 3.65764e-014 3.75703e-014
rhumerus -24.5107 4.6539 -85.2721
rradius 45.2814
rwrist -2.1622
rhand -25.1441 -4.84892
rfingers 7.12502
rthumb 1.37237 -34.8243
lclavicle 3.65764e-014 3.75703e-014
lhumerus -18.0897 15.5751 69.3698
lradius 120.581
lwrist 14.5199
lhand -31.1718 3.91238
lfingers 7.12502
lthumb -4.44901 33.8457
rfemur -74.0904 -31.4186 22.2695
rtibia 88.0291
rfoot -12.3359 5.3689
rtoes -28.54
lfemur -90.0079 17.7397 -14.2964
ltibia 92.3587
lfoot -18.9584 -24.0947
ltoes 4.12768
79
root 14.4193 13.965 12.1722 -278.495 -72.201 -51.9559
lowerback 56.5419 -0.318102 5.57465
upperback 14.4845 0.00946101 3.07732
thorax -4.85271 -1.15838 0.966279
lowerneck 4.53997 -7.3436 -12.7921
upperneck -1.73376 -10.1459 14.323
head 0.164533 -5.22427 6.40967
rclavicle 5.88403e-014 3.55825e-014
rhumerus -24.5961 3.59623 -84.5349
rradius 45.7786
rwrist -2.04054
rhand -24.4049 -4.21056
rfingers 7.12502
rthumb 2.08633 -34.1801
lclavicle 5.88403e-014 3.55825e-014
lhumerus -18.5968 14.8269 69.6917
lradius 122.57
lwrist 13.8927
lhand -31.0955 4.48688
lfingers 7.12502
lthumb -4.37534 34.4217
rfemur -71.8107 -30.5714 18.8241
rtibia 84.5265
rfoot -13.6084 1.44494
rtoes -23.5693
lfemur -89.1294 17.7142 -12.1274
ltibia 92.2154
lfoot -22.1199 -23.1304
ltoes 3.56569
80
root 14.2706 13.9005 11.789 -279.302 -72.1755 -50.8945
lowerback 56.2855 -0.0933383 4.99293
upperback 14.4531 0.00278883 3.15251
thorax -4.9014 -1.16759 1.30083
lowerneck 4.42384 -7.37096 -12.7181
upperneck -1.91405 -10.1565 14.4373
head 0.135423 -5.2325 6.43187
rclavicle -4.6118e-014 -2.3059e-014
rhumerus -24.7193 2.34489 -83.865
rradius 46.3821
rwrist -1.72827
rhand -23.4411 -3.60421
rfingers 7.12502
rthumb 3.01716 -33.5626
lclavicle -4.6118e-014 -2.3059e-014
lhumerus -19.0205 13.9651 70.0353
lradius 124.565
lwrist 13.1509
lhand -30.9215 4.83514
lfingers 7.12502
lthumb -4.20738 34.7733
rfemur -69.6477 -29.7766 15.4285
rtibia 80.6991
rfoot -14.1841 -2.60362
rtoes -17.9649
lfemur -88.4421 17.7723 -10.0305
ltibia 92.1087
lfoot -24.9825 -21.9785
ltoes 1.73289
81
root 14.1187 13.8355 11.4001 -280.262 -72.3619 -49.6909
lowerback 56.0965 0.117712 4.33135
upperback 14.4063 -0.0626763 3.11938
thorax -4.96941 -1.19509 1.58014
lowerneck 4.30725 -7.41729 -12.6272
upperneck -2.19299 -10.1838 14.6585
head 0.085397 -5.25335 6.48631
rclavicle -5.24792e-014 1.15295e-014
rhumerus -24.9136 0.964345 -83.3023
rradius 47.1134
rwrist -1.31678
rhand -22.439 -3.06029
rfingers 7.12502
rthumb 3.98486 -33.0028
lclavicle -5.24792e-014 1.15295e-014
lhumerus -19.326 12.9681 70.3709
lradius 126.51
lwrist 12.2897
lhand -30.6812 4.94672
lfingers 7.12502
lthumb -3.97525 34.8894
rfemur -67.5648 -29.0282 12.0887
rtibia 76.6136
rfoot -14.0591 -6.81416
rtoes -12.1893
lfemur -87.8466 18.0134 -8.06681
ltibia 92.0178
lfoot -27.27 -20.8548
ltoes -1.14035
82
root 13.9646 13.768 11.0063 -281.466 -72.7426 -48.2045
lowerback 55.8896 0.237957 3.65012
upperback 14.3505 -0.245224 2.95586
thorax -5.03884 -1.26139 1.77498
lowerneck 4.20456 -7.45261 -12.6105
upperneck -2.54032 -10.1956 14.9931
head 0.0216979 -5.27069 6.59074
rclavicle -1.59028e-014 -2.92213e-014
rhumerus -25.2095 -0.395162 -82.8667
rradius 47.9824
rwrist -0.931672
rhand -21.5725 -2.60394
rfingers 7.12502
rthumb 4.82159 -32.5291
lclavicle -1.59028e-014 -2.92213e-014
lhumerus -19.5388 11.883 70.667
lradius 128.354
lwrist 11.2832
lhand -30.3832 4.8202
lfingers 7.12502
lthumb -3.68748 34.768
rfemur -65.6435 -28.4146 8.84593
rtibia 72.3489
rfoot -13.3763 -10.7736
rtoes -7.015
lfemur -87.3749 18.4116 -6.30778
ltibia 91.9239
lfoot -28.7682 -20.1636
ltoes -4.25667
83
root 13.8089 13.6976 10.6094 -283.117 -73.276 -46.2416
lowerback 55.6709 0.20779 3.02287
upperback 14.2856 -0.572768 2.67582
thorax -5.10689 -1.37883 1.87929
lowerneck 4.11198 -7.47057 -12.7273
upperneck -2.91809 -10.1885 15.4189
head -0.0425122 -5.28121 6.74716
rclavicle -3.33958e-014 -2.22639e-014
rhumerus -25.6161 -1.61482 -82.5311
rradius 48.9831
rwrist -0.698198
rhand -20.9925 -2.25892
rfingers 7.12502
rthumb 5.38163 -32.1706
lclavicle -3.33958e-014 -2.22639e-014
lhumerus -19.6663 10.731 70.9519
lradius 130.036
lwrist 10.0993
lhand -30.1158 4.47404
lfingers 7.12502
lthumb -3.42929 34.4262
rfemur -63.8529 -28.0285 5.71476
rtibia 67.9714
rfoot -12.2923 -14.3391
rtoes -3.28407
lfemur -86.9891 18.9208 -4.84922
ltibia 91.805
lfoot -29.5593 -20.1332
ltoes -7.17889
84
root 13.6521 13.6281 10.2107 -285.213 -73.9079 -43.8558
lowerback 55.5036 0.0491315 2.51498
upperback 14.2027 -0.989642 2.29909
thorax -5.19055 -1.52488 1.86415
lowerneck 4.03467 -7.49347 -12.9131
upperneck -3.3114 -10.1901 15.8736
head -0.10661 -5.2977 6.92509
rclavicle -3.65764e-014 -2.44505e-014
rhumerus -26.1493 -2.70831 -82.2681
rradius 50.1028
rwrist -0.717125
rhand -20.7782 -2.05358
rfingers 7.12502
rthumb 5.58846 -31.9599
lclavicle -3.65764e-014 -2.44505e-014
lhumerus -19.6859 9.45198 71.2525
lradius 131.478
lwrist 8.68864
lhand -29.8905 3.9236
lfingers 7.12502
lthumb -3.21174 33.8792
rfemur -62.1539 -27.8559 2.76344
rtibia 63.5462
rfoot -10.9338 -17.3818
rtoes -1.828
lfemur -86.5896 19.5489 -3.65363
ltibia 91.6176
lfoot -29.8975 -20.6533
ltoes -9.85376
85
root 13.4948 13.5611 9.81054 -287.709 -74.5939 -41.1506
lowerback 55.459 -0.204643 2.10334
upperback 14.0937 -1.46935 1.88133
thorax -5.30922 -1.69545 1.79119
lowerneck 3.96571 -7.50697 -13.2584
upperneck -3.68568 -10.1885 16.3389
head -0.157384 -5.31137 7.13298
rclavicle -3.97569e-014 -6.7388e-014
rhumerus -26.7784 -3.53269 -82.0192
rradius 51.3023
rwrist -1.05283
rhand -20.9754 -2.0325
rfingers 7.12502
rthumb 5.39808 -31.9437
lclavicle -3.97569e-014 -6.7388e-014
lhumerus -19.651 8.13448 71.6249
lradius 132.625
lwrist 7.00769
lhand -29.8026 3.21521
lfingers 7.12502
lthumb -3.12686 33.172
rfemur -60.5294 -27.8661 0.0594083
rtibia 59.1512
rfoot -9.5017 -19.7641
rtoes -2.80568
lfemur -86.0521 20.2844 -2.65944
ltibia 91.2929
lfoot -29.8361 -21.7471
ltoes -12.0607
86
root 13.337 13.4981 9.40886 -290.564 -75.3075 -38.2174
lowerback 55.595 -0.470527 1.78657
upperback 13.9588 -1.91995 1.48041
thorax -5.4709 -1.8554 1.68722
lowerneck 3.89762 -7.54801 -13.6646
upperneck -4.05609 -10.2272 16.7429
head -0.200658 -5.34284 7.33077
rclavicle 3.65764e-014 -1.59028e-015
rhumerus -27.479 -4.16401 -81.7136
rradius 52.5413
rwrist -1.69305
rhand -21.5748 -2.21407
rfingers 7.12502
rthumb 4.81933 -32.1393
lclavicle 3.65764e-014 -1.59028e-015
lhumerus -19.5298 6.74068 72.1286
lradius 133.42
lwrist 5.07352
lhand -29.826 2.37359
lfingers 7.12502
lthumb -3.14942 32.3301
rfemur -58.9899 -28.0078 -2.34445
rtibia 54.8794
rfoot -8.17126 -21.4345
rtoes -5.98397
lfemur -85.2559 21.0789 -1.77222
ltibia 90.7876
lfoot -29.4671 -23.1934
ltoes -13.9992
87
root 13.1785 13.4398 9.00474 -293.656 -76.0268 -35.1858
lowerback 55.9115 -0.720761 1.53693
upperback 13.7985 -2.32486 1.11639
thorax -5.67516 -1.99963 1.57928
lowerneck 3.8136 -7.6027 -14.138
upperneck -4.4142 -10.2877 17.0764
head -0.234032 -5.38138 7.51597
rclavicle 1.59028e-014 -2.98177e-015
rhumerus -28.1951 -4.5568 -81.3474
rradius 53.7548
rwrist -2.57547
rhand -22.5305 -2.59794
rfingers 7.12502
rthumb 3.89647 -32.5421
lclavicle 1.59028e-014 -2.98177e-015
lhumerus -19.3693 5.36641 72.7453
lradius 133.843
lwrist 2.96039
lhand -29.9607 1.44095
lfingers 7.12502
lthumb -3.27951 31.3955
rfemur -57.6254 -28.244 -4.35957
rtibia 50.8492
rfoot -7.04768 -22.4116
rtoes -10.6964
lfemur -84.1479 21.9225 -0.905298
ltibia 90.0721
lfoot -28.9592 -24.7206
ltoes -15.5361
88
root 13.0196 13.386 8.59715 -296.942 -76.7465 -32.085
lowerback 56.3831 -0.920714 1.32956
upperback 13.6176 -2.65591 0.814475
thorax -5.91287 -2.11745 1.49327
lowerneck 3.7157 -7.67792 -14.6383
upperneck -4.78025 -10.3766 17.3172
head -0.266078 -5.43039 7.675
rclavicle 3.81667e-014 2.60408e-014
rhumerus -28.8773 -4.74208 -80.9014
rradius 54.8879
rwrist -3.6198
rhand -23.7565 -3.15295
rfingers 7.12502
rthumb 2.71255 -33.1155
lclavicle 3.81667e-014 2.60408e-014
lhumerus -19.194 4.07461 73.4629
lradius 133.903
lwrist 0.78367
lhand -30.1541 0.473507
lfingers 7.12502
lthumb -3.46627 30.4251
rfemur -56.5352 -28.5527 -5.94289
rtibia 47.2048
rfoot -6.20059 -22.8173
rtoes -15.8944
lfemur -82.709 22.7661 0.00266779
ltibia 89.1269
lfoot -28.3364 -26.2318
ltoes -16.8142
89
root 12.8614 13.3377 8.18502 -300.245 -77.4718 -29.0306
lowerback 56.9101 -1.03112 1.13097
upperback 13.4307 -2.88453 0.58825
thorax -6.15829 -2.197 1.44433
lowerneck 3.60176 -7.7783 -15.1181
upperneck -5.16684 -10.4974 17.4494
head -0.30317 -5.49193 7.79473
rclavicle -3.02153e-014 -2.54444e-014
rhumerus -29.4803 -4.78075 -80.3692
rradius 55.8924
rwrist -4.72464
rhand -25.1366 -3.80983
rfingers 7.12502
rthumb 1.37969 -33.7851
lclavicle -3.02153e-014 -2.54444e-014
lhumerus -19.0345 2.91037 74.2605
lradius 133.631
lwrist -1.36013
lhand -30.3885 -0.428641
lfingers 7.12502
lthumb -3.69264 29.5191
rfemur -55.8425 -28.8537 -7.13016
rtibia 44.1268
rfoot -4.80431 -22.9096
rtoes -20.9669
lfemur -80.9762 23.5655 1.01023
ltibia 87.9477
lfoot -27.6779 -27.546
ltoes -18.2012
